<svg width="24" height="24" viewBox="0 0 24 24" fill="currentColor" xmlns="http://www.w3.org/2000/svg">
  <path d="M13.582 8.182C14.204 8.182 14.627 8.614 14.627 9.259V9.271C14.627 9.871 14.182 10.318 13.582 10.318C12.982 10.318 12.545 9.871 12.545 9.271V9.259C12.545 8.614 12.96 8.182 13.582 8.182ZM18.363 3.182C17.773 3.182 17.318 3.637 17.318 4.227V4.239C17.318 4.829 17.773 5.284 18.363 5.284C18.953 5.284 19.408 4.829 19.408 4.239V4.227C19.408 3.637 18.953 3.182 18.363 3.182ZM5.636 3.182C5.046 3.182 4.591 3.637 4.591 4.227V4.239C4.591 4.829 5.046 5.284 5.636 5.284C6.226 5.284 6.681 4.829 6.681 4.239V4.227C6.681 3.637 6.226 3.182 5.636 3.182ZM13.582 11.5C11.636 11.5 10.045 12.955 10.045 14.773V14.785C10.045 16.591 11.636 18.046 13.582 18.046C15.528 18.046 17.118 16.591 17.118 14.785V14.773C17.118 12.955 15.528 11.5 13.582 11.5ZM13.582 16.864C12.727 16.864 12.227 16.341 12.227 15.5V15.488C12.227 14.635 12.727 14.114 13.582 14.114C14.437 14.114 14.936 14.635 14.936 15.488V15.5C14.936 16.341 14.437 16.864 13.582 16.864ZM8.409 8.182C9.031 8.182 9.454 8.614 9.454 9.259V9.271C9.454 9.871 9.009 10.318 8.409 10.318C7.809 10.318 7.372 9.871 7.372 9.271V9.259C7.372 8.614 7.787 8.182 8.409 8.182ZM15.755 8.182C16.377 8.182 16.8 8.614 16.8 9.259V9.271C16.8 9.871 16.355 10.318 15.755 10.318C15.155 10.318 14.718 9.871 14.718 9.271V9.259C14.718 8.614 15.133 8.182 15.755 8.182Z"/>
</svg>