<svg width="24" height="24" viewBox="0 0 24 24" fill="currentColor" xmlns="http://www.w3.org/2000/svg">
  <path d="M6.62 10.79c1.44 0 2.8.56 3.8 1.56s1.56 2.36 1.56 3.8c0 1.44-.56 2.8-1.56 3.8S8.06 21.31 6.62 21.31s-2.8-.56-3.8-1.56-1.56-2.36-1.56-3.8.56-2.8 1.56-3.8 2.36-1.56 3.8-1.56zm0 6.4c.88 0 1.6-.72 1.6-1.6s-.72-1.6-1.6-1.6-1.6.72-1.6 1.6.72 1.6 1.6 1.6z"/>
  <path d="M16.62 6.79c1.44 0 2.8.56 3.8 1.56s1.56 2.36 1.56 3.8c0 1.44-.56 2.8-1.56 3.8S18.06 17.31 16.62 17.31s-2.8-.56-3.8-1.56-1.56-2.36-1.56-3.8.56-2.8 1.56-3.8 2.36-1.56 3.8-1.56zm0 6.4c.88 0 1.6-.72 1.6-1.6s-.72-1.6-1.6-1.6-1.6.72-1.6 1.6.72 1.6 1.6 1.6z"/>
  <path d="M12 0C5.37 0 0 5.37 0 12s5.37 12 12 12 12-5.37 12-12S18.63 0 12 0zm0 22c-5.52 0-10-4.48-10-10S6.48 2 12 2s10 4.48 10 10-4.48 10-10 10z"/>
</svg>